<svg xmlns="http://www.w3.org/2000/svg" xmlns:xlink="http://www.w3.org/1999/xlink" contentStyleType="text/css" data-diagram-type="DESCRIPTION" height="867px" preserveAspectRatio="none" style="width:972px;height:867px;background:#FFFFFF;" version="1.1" viewBox="0 0 972 867" width="972px" zoomAndPan="magnify"><defs/><g><!--entity Gateway--><g id="elem_Gateway"><ellipse cx="812.9224" cy="14" fill="#F1F1F1" rx="8" ry="8" style="stroke:#181818;stroke-width:0.5;"/><path d="M812.9224,22 L812.9224,49 M799.9224,30 L825.9224,30 M812.9224,49 L799.9224,64 M812.9224,49 L825.9224,64 " fill="transparent" style="stroke:#181818;stroke-width:0.5;"/><text fill="#000000" font-family="sans-serif" font-size="14" lengthAdjust="spacing" textLength="61.8447" x="782" y="78.4951">Gateway</text></g><g id="elem_BlockBot"><ellipse cx="812.9775" cy="157.2428" fill="#F1F1F1" rx="55.9775" ry="14.7428" style="stroke:#181818;stroke-width:0.5;"/><text fill="#000000" font-family="sans-serif" font-size="14" lengthAdjust="spacing" textLength="61.5234" x="779.2158" y="160.9903">BlockBot</text></g><!--entity main.py--><g id="elem_main.py"><rect fill="#F1F1F1" height="46.2969" rx="2.5" ry="2.5" style="stroke:#181818;stroke-width:0.5;" width="96.6016" x="764.5" y="232.5"/><rect fill="#F1F1F1" height="10" style="stroke:#181818;stroke-width:0.5;" width="15" x="841.1016" y="237.5"/><rect fill="#F1F1F1" height="2" style="stroke:#181818;stroke-width:0.5;" width="4" x="839.1016" y="239.5"/><rect fill="#F1F1F1" height="2" style="stroke:#181818;stroke-width:0.5;" width="4" x="839.1016" y="243.5"/><text fill="#000000" font-family="sans-serif" font-size="14" lengthAdjust="spacing" textLength="56.6016" x="779.5" y="265.4951">main.py</text></g><!--entity core/inferencer.py--><g id="elem_core/inferencer.py"><rect fill="#F1F1F1" height="46.2969" rx="2.5" ry="2.5" style="stroke:#181818;stroke-width:0.5;" width="168.584" x="728.5" y="339.5"/><rect fill="#F1F1F1" height="10" style="stroke:#181818;stroke-width:0.5;" width="15" x="877.084" y="344.5"/><rect fill="#F1F1F1" height="2" style="stroke:#181818;stroke-width:0.5;" width="4" x="875.084" y="346.5"/><rect fill="#F1F1F1" height="2" style="stroke:#181818;stroke-width:0.5;" width="4" x="875.084" y="350.5"/><text fill="#000000" font-family="sans-serif" font-size="14" lengthAdjust="spacing" textLength="128.584" x="743.5" y="372.4951">core/inferencer.py</text></g><!--entity core/fc.py--><g id="elem_core/fc.py"><rect fill="#F1F1F1" height="46.2969" rx="2.5" ry="2.5" style="stroke:#181818;stroke-width:0.5;" width="109.5967" x="526" y="446.5"/><rect fill="#F1F1F1" height="10" style="stroke:#181818;stroke-width:0.5;" width="15" x="615.5967" y="451.5"/><rect fill="#F1F1F1" height="2" style="stroke:#181818;stroke-width:0.5;" width="4" x="613.5967" y="453.5"/><rect fill="#F1F1F1" height="2" style="stroke:#181818;stroke-width:0.5;" width="4" x="613.5967" y="457.5"/><text fill="#000000" font-family="sans-serif" font-size="14" lengthAdjust="spacing" textLength="69.5967" x="541" y="479.4951">core/fc.py</text></g><!--entity llm_tools/eth.py--><g id="elem_llm_tools/eth.py"><rect fill="#F1F1F1" height="46.2969" rx="2.5" ry="2.5" style="stroke:#181818;stroke-width:0.5;" width="151.5352" x="39" y="569.5"/><rect fill="#F1F1F1" height="10" style="stroke:#181818;stroke-width:0.5;" width="15" x="170.5352" y="574.5"/><rect fill="#F1F1F1" height="2" style="stroke:#181818;stroke-width:0.5;" width="4" x="168.5352" y="576.5"/><rect fill="#F1F1F1" height="2" style="stroke:#181818;stroke-width:0.5;" width="4" x="168.5352" y="580.5"/><text fill="#000000" font-family="sans-serif" font-size="14" lengthAdjust="spacing" textLength="111.5352" x="54" y="602.4951">llm_tools/eth.py</text></g><!--entity llm_tools/math.py--><g id="elem_llm_tools/math.py"><rect fill="#F1F1F1" height="46.2969" rx="2.5" ry="2.5" style="stroke:#181818;stroke-width:0.5;" width="165.1387" x="229.5" y="569.5"/><rect fill="#F1F1F1" height="10" style="stroke:#181818;stroke-width:0.5;" width="15" x="374.6387" y="574.5"/><rect fill="#F1F1F1" height="2" style="stroke:#181818;stroke-width:0.5;" width="4" x="372.6387" y="576.5"/><rect fill="#F1F1F1" height="2" style="stroke:#181818;stroke-width:0.5;" width="4" x="372.6387" y="580.5"/><text fill="#000000" font-family="sans-serif" font-size="14" lengthAdjust="spacing" textLength="125.1387" x="244.5" y="602.4951">llm_tools/math.py</text></g><g id="elem_Ethereum Blockchain"><ellipse cx="99.1907" cy="715.5381" fill="#F1F1F1" rx="93.1907" ry="21.0381" style="stroke:#181818;stroke-width:0.5;"/><text fill="#000000" font-family="sans-serif" font-size="14" lengthAdjust="spacing" textLength="148.9277" x="24.7268" y="718.3848">Ethereum Blockchain</text></g><!--entity Etherscan--><g id="elem_Etherscan"><rect fill="#F1F1F1" height="46.2969" rx="2.5" ry="2.5" style="stroke:#181818;stroke-width:0.5;" width="110.0205" x="44" y="815.5"/><rect fill="#F1F1F1" height="10" style="stroke:#181818;stroke-width:0.5;" width="15" x="134.0205" y="820.5"/><rect fill="#F1F1F1" height="2" style="stroke:#181818;stroke-width:0.5;" width="4" x="132.0205" y="822.5"/><rect fill="#F1F1F1" height="2" style="stroke:#181818;stroke-width:0.5;" width="4" x="132.0205" y="826.5"/><text fill="#000000" font-family="sans-serif" font-size="14" lengthAdjust="spacing" textLength="70.0205" x="59" y="848.4951">Etherscan</text></g><g id="elem_Math Computations"><ellipse cx="315.0833" cy="715.5167" fill="#F1F1F1" rx="88.0833" ry="20.0167" style="stroke:#181818;stroke-width:0.5;"/><text fill="#000000" font-family="sans-serif" font-size="14" lengthAdjust="spacing" textLength="137.3887" x="246.389" y="718.3633">Math Computations</text></g><!--entity LLM--><g id="elem_LLM"><rect fill="#F1F1F1" height="46.2969" rx="2.5" ry="2.5" style="stroke:#181818;stroke-width:0.5;" width="67.6787" x="708" y="692.5"/><rect fill="#F1F1F1" height="10" style="stroke:#181818;stroke-width:0.5;" width="15" x="755.6787" y="697.5"/><rect fill="#F1F1F1" height="2" style="stroke:#181818;stroke-width:0.5;" width="4" x="753.6787" y="699.5"/><rect fill="#F1F1F1" height="2" style="stroke:#181818;stroke-width:0.5;" width="4" x="753.6787" y="703.5"/><text fill="#000000" font-family="sans-serif" font-size="14" lengthAdjust="spacing" textLength="27.6787" x="723" y="725.4951">LLM</text></g><!--entity Message Context--><g id="elem_Message Context"><rect fill="#F1F1F1" height="46.2969" rx="2.5" ry="2.5" style="stroke:#181818;stroke-width:0.5;" width="160.9004" x="429.5" y="569.5"/><rect fill="#F1F1F1" height="10" style="stroke:#181818;stroke-width:0.5;" width="15" x="570.4004" y="574.5"/><rect fill="#F1F1F1" height="2" style="stroke:#181818;stroke-width:0.5;" width="4" x="568.4004" y="576.5"/><rect fill="#F1F1F1" height="2" style="stroke:#181818;stroke-width:0.5;" width="4" x="568.4004" y="580.5"/><text fill="#000000" font-family="sans-serif" font-size="14" lengthAdjust="spacing" textLength="120.9004" x="444.5" y="602.4951">Message Context</text></g><!--entity Thinking--><g id="elem_Thinking"><rect fill="#F1F1F1" height="46.2969" rx="2.5" ry="2.5" style="stroke:#181818;stroke-width:0.5;" width="99.9443" x="626" y="569.5"/><rect fill="#F1F1F1" height="10" style="stroke:#181818;stroke-width:0.5;" width="15" x="705.9443" y="574.5"/><rect fill="#F1F1F1" height="2" style="stroke:#181818;stroke-width:0.5;" width="4" x="703.9443" y="576.5"/><rect fill="#F1F1F1" height="2" style="stroke:#181818;stroke-width:0.5;" width="4" x="703.9443" y="580.5"/><text fill="#000000" font-family="sans-serif" font-size="14" lengthAdjust="spacing" textLength="59.9443" x="641" y="602.4951">Thinking</text></g><!--link Gateway to BlockBot--><g id="link_Gateway_BlockBot"><path d="M813,81.63 C813,102.53 813,121.39 813,136.41 " fill="transparent" id="Gateway-to-BlockBot" style="stroke:#181818;stroke-width:1;"/><polygon fill="#181818" points="813,142.41,817,133.41,813,137.41,809,133.41,813,142.41" style="stroke:#181818;stroke-width:1;"/></g><!--link BlockBot to main.py--><g id="link_BlockBot_main.py"><path d="M813,171.83 C813,187.67 813,207.84 813,226.5 " fill="transparent" id="BlockBot-to-main.py" style="stroke:#181818;stroke-width:1;"/><polygon fill="#181818" points="813,232.5,817,223.5,813,227.5,809,223.5,813,232.5" style="stroke:#181818;stroke-width:1;"/></g><!--link main.py to core/inferencer.py--><g id="link_main.py_core/inferencer.py"><path d="M813,278.51 C813,296.31 813,315.27 813,333.16 " fill="transparent" id="main.py-to-core/inferencer.py" style="stroke:#181818;stroke-width:1;"/><polygon fill="#181818" points="813,339.16,817,330.16,813,334.16,809,330.16,813,339.16" style="stroke:#181818;stroke-width:1;"/></g><!--link core/inferencer.py to core/fc.py--><g id="link_core/inferencer.py_core/fc.py"><path d="M764.37,385.51 C724.9,403.37 674.9862,425.966 635.4362,443.866 " fill="transparent" id="core/inferencer.py-to-core/fc.py" style="stroke:#181818;stroke-width:1;"/><polygon fill="#181818" points="629.97,446.34,639.8186,446.2732,634.5252,444.2784,636.52,438.9849,629.97,446.34" style="stroke:#181818;stroke-width:1;"/></g><!--link core/fc.py to llm_tools/eth.py--><g id="link_core/fc.py_llm_tools/eth.py"><path d="M525.71,484.86 C442.54,506.45 290.7775,545.8622 196.8375,570.2522 " fill="transparent" id="core/fc.py-to-llm_tools/eth.py" style="stroke:#181818;stroke-width:1;"/><polygon fill="#181818" points="191.03,571.76,200.7464,573.3699,195.8695,570.5035,198.736,565.6266,191.03,571.76" style="stroke:#181818;stroke-width:1;"/></g><!--link core/fc.py to llm_tools/math.py--><g id="link_core/fc.py_llm_tools/math.py"><path d="M531.97,492.55 C483.48,514.37 415.1521,545.099 366.6121,566.929 " fill="transparent" id="core/fc.py-to-llm_tools/math.py" style="stroke:#181818;stroke-width:1;"/><polygon fill="#181818" points="361.14,569.39,370.9888,569.3466,365.7001,567.3392,367.7075,562.0505,361.14,569.39" style="stroke:#181818;stroke-width:1;"/></g><!--link llm_tools/eth.py to Ethereum Blockchain--><g id="link_llm_tools/eth.py_Ethereum Blockchain"><path d="M112.07,615.69 C109.09,638.21 105.3063,666.8018 102.4363,688.5118 " fill="transparent" id="llm_tools/eth.py-to-Ethereum Blockchain" style="stroke:#181818;stroke-width:1;"/><polygon fill="#181818" points="101.65,694.46,106.795,686.0619,102.3053,689.5031,98.864,685.0134,101.65,694.46" style="stroke:#181818;stroke-width:1;"/></g><!--link Ethereum Blockchain to Etherscan--><g id="link_Ethereum Blockchain_Etherscan"><path d="M99,736.75 C99,758.42 99,786.68 99,809.12 " fill="transparent" id="Ethereum Blockchain-to-Etherscan" style="stroke:#181818;stroke-width:1;"/><polygon fill="#181818" points="99,815.12,103,806.12,99,810.12,95,806.12,99,815.12" style="stroke:#181818;stroke-width:1;"/><text fill="#000000" font-family="sans-serif" font-size="13" lengthAdjust="spacing" textLength="91.2729" x="100" y="781.5669">retrieves data</text></g><!--link llm_tools/math.py to Math Computations--><g id="link_llm_tools/math.py_Math Computations"><path d="M312.55,615.69 C313.12,638.48 313.8432,667.5918 314.3732,689.2418 " fill="transparent" id="llm_tools/math.py-to-Math Computations" style="stroke:#181818;stroke-width:1;"/><polygon fill="#181818" points="314.52,695.24,318.2985,686.1448,314.3976,690.2415,310.3009,686.3406,314.52,695.24" style="stroke:#181818;stroke-width:1;"/></g><!--link core/inferencer.py to LLM--><g id="link_core/inferencer.py_LLM"><path d="M835.83,385.66 C879.37,430.7 965.94,535.46 919,615.5 C888.19,668.04 823.9671,693.1599 781.8171,704.9799 " fill="transparent" id="core/inferencer.py-to-LLM" style="stroke:#181818;stroke-width:1;"/><polygon fill="#181818" points="776.04,706.6,785.7858,708.0213,780.8543,705.2499,783.6257,700.3185,776.04,706.6" style="stroke:#181818;stroke-width:1;"/></g><!--link LLM to core/fc.py--><g id="link_LLM_core/fc.py"><path d="M771.21,692.38 C779.92,684.07 788.36,673.85 793,662.5 C816.67,604.57 819.12,569.67 778,522.5 C759.52,501.3 693.9242,487.3306 642.3842,479.0606 " fill="transparent" id="LLM-to-core/fc.py" style="stroke:#181818;stroke-width:1;"/><polygon fill="#181818" points="636.46,478.11,644.7126,483.4854,641.3969,478.9022,645.9801,475.5864,636.46,478.11" style="stroke:#181818;stroke-width:1;"/><text fill="#000000" font-family="sans-serif" font-size="13" lengthAdjust="spacing" textLength="99.6772" x="811" y="597.0669">function calling</text></g><!--link core/fc.py to core/fc.py--><g id="link_core/fc.py_core/fc.py"><path d="M636.37,459.75 C655.53,459.65 671,462.9 671,469.5 C671,476.1 661.5299,479.3813 642.3699,479.2813 " fill="transparent" id="core/fc.py-to-core/fc.py" style="stroke:#181818;stroke-width:1;"/><polygon fill="#181818" points="636.37,479.25,645.349,483.2969,641.3699,479.2761,645.3908,475.297,636.37,479.25" style="stroke:#181818;stroke-width:1;"/><text fill="#000000" font-family="sans-serif" font-size="13" lengthAdjust="spacing" textLength="102.0195" x="677" y="474.0669">multiple rounds</text></g><!--link core/fc.py to Message Context--><g id="link_core/fc.py_Message Context"><path d="M543.89,492.65 C533.5,500.72 523.32,510.78 517,522.5 C509.28,536.81 507.6417,549.2112 507.9217,563.4112 " fill="transparent" id="core/fc.py-to-Message Context" style="stroke:#181818;stroke-width:1;"/><polygon fill="#181818" points="508.04,569.41,511.8618,560.3329,507.9414,564.411,503.8633,560.4906,508.04,569.41" style="stroke:#181818;stroke-width:1;"/><text fill="#000000" font-family="sans-serif" font-size="13" lengthAdjust="spacing" textLength="90.4478" x="518" y="535.5669">injects results</text></g><!--link LLM to Thinking--><g id="link_LLM_Thinking"><path d="M707.67,699.9 C692.28,691.41 675.67,679.06 667,662.5 C659.49,648.16 660.5298,635.6598 664.9198,621.5298 " fill="transparent" id="LLM-to-Thinking" style="stroke:#181818;stroke-width:1;"/><polygon fill="#181818" points="666.7,615.8,660.2098,623.208,665.2165,620.5749,667.8496,625.5815,666.7,615.8" style="stroke:#181818;stroke-width:1;"/><text fill="#000000" font-family="sans-serif" font-size="13" lengthAdjust="spacing" textLength="120.8276" x="668" y="658.5669">reasoning enabled</text></g><!--link Thinking to LLM--><g id="link_Thinking_LLM"><path d="M625.94,610.49 C591.43,622.71 550.91,638.25 546,645.5 C541.76,651.76 541.39,656.51 546,662.5 C565.59,687.96 650.9138,702.748 701.7038,709.598 " fill="transparent" id="Thinking-to-LLM" style="stroke:#181818;stroke-width:1;"/><polygon fill="#181818" points="707.65,710.4,699.2654,705.233,702.6949,709.7317,698.1961,713.1612,707.65,710.4" style="stroke:#181818;stroke-width:1;"/><text fill="#000000" font-family="sans-serif" font-size="13" lengthAdjust="spacing" textLength="107.4023" x="547" y="658.5669">formal inference</text></g><!--link core/fc.py to Thinking--><g id="link_core/fc.py_Thinking"><path d="M598.42,492.69 C615.57,514.53 637.8745,542.941 654.9845,564.731 " fill="transparent" id="core/fc.py-to-Thinking" style="stroke:#181818;stroke-width:1;"/><polygon fill="#181818" points="658.69,569.45,656.2778,559.9011,655.6021,565.5175,649.9857,564.8418,658.69,569.45" style="stroke:#181818;stroke-width:1;"/><text fill="#000000" font-family="sans-serif" font-size="13" lengthAdjust="spacing" textLength="133.5928" x="636" y="535.5669">thinking in fc rounds</text></g><!--SRC=[XL2nKiCm3Dtz5HhfKBepC9JZMDgj6zVZXACqfhQSinMWVuyIXn2kELXyJz9xqdj6Ap714mfzuCMO4S1wVGytMn_jUHjbPNxWC7aEwFYslHpDX4hVnaGRnpKbOakfK1QQCtPjPwnIbAdtuKLYz7b3qlpB2VXDkjALC8_Ig84km135DkfRSorro-fXaYto4UuWaIH7xvIXGa6pSBSSsMi53p6qdQ2uo7drH_pTRgzs-_VgE_HatR7jLu15xnsV5jB_5eJEYsizGOeTLtc1lwUSyKHga8K-fHSvVYChMGDcbUUvdKFZ-Ao7ItxCaRK0OdprL9dPU0hJkuufe8SfxeAB-LuPiGgWjgFpBm00]--></g></svg>